<?xml version="1.0" encoding="UTF-8"?>
<svg xmlns="http://www.w3.org/2000/svg" viewBox="16 6 1028 543" width="1028" height="543" font-family="system-ui,'Segoe UI','Microsoft JhengHei',sans-serif">
<defs>
<marker id="ah760da0" viewBox="0 0 10 10" refX="9" refY="5" markerWidth="7" markerHeight="7" orient="auto-start-reverse"><path d="M0,0 L10,5 L0,10 z" fill="#1971c2"/></marker>
<marker id="ah60a55d" viewBox="0 0 10 10" refX="9" refY="5" markerWidth="7" markerHeight="7" orient="auto-start-reverse"><path d="M0,0 L10,5 L0,10 z" fill="#e8590c"/></marker>
<marker id="ah78c166" viewBox="0 0 10 10" refX="9" refY="5" markerWidth="7" markerHeight="7" orient="auto-start-reverse"><path d="M0,0 L10,5 L0,10 z" fill="#2f9e44"/></marker>
</defs>
<rect x="16" y="6" width="1028" height="543" fill="#ffffff"/>
<text x="40" y="30" font-size="22" fill="#1e1e1e" text-anchor="start" dominant-baseline="hanging">
<tspan x="40" dy="0">CDC 資料管線 — 高階架構（來源=藍 擷取/匯流=黃 下游=綠）</tspan>
</text>
<rect x="40" y="110" width="150" height="64" rx="8" fill="#a5d8ff" stroke="#1971c2" stroke-width="2"/>
<text x="115" y="130" font-size="16" fill="#1e1e1e" text-anchor="middle" dominant-baseline="hanging">
<tspan x="115" dy="0">應用 (CRUD)</tspan>
</text>
<rect x="270" y="110" width="160" height="64" rx="8" fill="#a5d8ff" stroke="#1971c2" stroke-width="2"/>
<text x="350" y="130" font-size="16" fill="#1e1e1e" text-anchor="middle" dominant-baseline="hanging">
<tspan x="350" dy="0">主庫 + binlog</tspan>
</text>
<rect x="510" y="110" width="170" height="64" rx="8" fill="#ffec99" stroke="#e8590c" stroke-width="2"/>
<text x="595" y="130" font-size="16" fill="#1e1e1e" text-anchor="middle" dominant-baseline="hanging">
<tspan x="595" dy="0">Debezium (CDC)</tspan>
</text>
<rect x="510" y="250" width="170" height="64" rx="8" fill="#ffec99" stroke="#e8590c" stroke-width="2"/>
<text x="595" y="262" font-size="16" fill="#1e1e1e" text-anchor="middle" dominant-baseline="hanging">
<tspan x="595" dy="0">Kafka topic</tspan>
<tspan x="595" dy="20">(依 pk 分區,有序)</tspan>
</text>
<rect x="240" y="410" width="150" height="64" rx="8" fill="#b2f2bb" stroke="#2f9e44" stroke-width="2"/>
<text x="315" y="422" font-size="16" fill="#1e1e1e" text-anchor="middle" dominant-baseline="hanging">
<tspan x="315" dy="0">消費者A</tspan>
<tspan x="315" dy="20">→ ES 索引</tspan>
</text>
<rect x="510" y="410" width="150" height="64" rx="8" fill="#b2f2bb" stroke="#2f9e44" stroke-width="2"/>
<text x="585" y="422" font-size="16" fill="#1e1e1e" text-anchor="middle" dominant-baseline="hanging">
<tspan x="585" dy="0">消費者B</tspan>
<tspan x="585" dy="20">→ Redis 快取</tspan>
</text>
<rect x="780" y="410" width="150" height="64" rx="8" fill="#b2f2bb" stroke="#2f9e44" stroke-width="2"/>
<text x="855" y="422" font-size="16" fill="#1e1e1e" text-anchor="middle" dominant-baseline="hanging">
<tspan x="855" dy="0">消費者C</tspan>
<tspan x="855" dy="20">→ 數倉</tspan>
</text>
<text x="700" y="200" font-size="14" fill="#6741d9" text-anchor="start" dominant-baseline="hanging">
<tspan x="700" dy="0">事件: {lsn, op, before, after}</tspan>
</text>
<text x="240" y="500" font-size="14" fill="#6741d9" text-anchor="start" dominant-baseline="hanging">
<tspan x="240" dy="0">各下游: 依 LSN 依序 + 冪等套用 (at-least-once + LSN 去重) → 最終一致</tspan>
</text>
<polyline points="192,142 266,142" fill="none" stroke="#1971c2" stroke-width="2" marker-end="url(#ah760da0)" stroke-linecap="round" stroke-linejoin="round"/>
<polyline points="432,142 506,142" fill="none" stroke="#e8590c" stroke-width="2" marker-end="url(#ah60a55d)" stroke-linecap="round" stroke-linejoin="round"/>
<polyline points="595,176 595,248" fill="none" stroke="#e8590c" stroke-width="2" marker-end="url(#ah60a55d)" stroke-linecap="round" stroke-linejoin="round"/>
<polyline points="540,316 325,408" fill="none" stroke="#2f9e44" stroke-width="2" marker-end="url(#ah78c166)" stroke-linecap="round" stroke-linejoin="round"/>
<polyline points="590,316 590,408" fill="none" stroke="#2f9e44" stroke-width="2" marker-end="url(#ah78c166)" stroke-linecap="round" stroke-linejoin="round"/>
<polyline points="650,316 855,408" fill="none" stroke="#2f9e44" stroke-width="2" marker-end="url(#ah78c166)" stroke-linecap="round" stroke-linejoin="round"/>
</svg>
