<?xml version="1.0" encoding="UTF-8"?>
<svg xmlns="http://www.w3.org/2000/svg" viewBox="16 0 938 504" width="938" height="504" font-family="system-ui,'Segoe UI','Microsoft JhengHei',sans-serif">
<defs>
<marker id="ah760da0" viewBox="0 0 10 10" refX="9" refY="5" markerWidth="7" markerHeight="7" orient="auto-start-reverse"><path d="M0,0 L10,5 L0,10 z" fill="#1971c2"/></marker>
<marker id="ah60a55d" viewBox="0 0 10 10" refX="9" refY="5" markerWidth="7" markerHeight="7" orient="auto-start-reverse"><path d="M0,0 L10,5 L0,10 z" fill="#e8590c"/></marker>
<marker id="ah78c166" viewBox="0 0 10 10" refX="9" refY="5" markerWidth="7" markerHeight="7" orient="auto-start-reverse"><path d="M0,0 L10,5 L0,10 z" fill="#2f9e44"/></marker>
</defs>
<rect x="16" y="0" width="938" height="504" fill="#ffffff"/>
<text x="40" y="24" font-size="22" fill="#1e1e1e" text-anchor="start" dominant-baseline="hanging">
<tspan x="40" dy="0">LLM 推論 API — 高階架構（請求/寫=藍 串流token=綠 基建=黃）</tspan>
</text>
<rect x="40" y="110" width="160" height="66" rx="8" fill="#a5d8ff" stroke="#1971c2" stroke-width="2"/>
<text x="120" y="132" font-size="16" fill="#1e1e1e" text-anchor="middle" dominant-baseline="hanging">
<tspan x="120" dy="0">客戶端 (請求)</tspan>
</text>
<rect x="260" y="110" width="180" height="66" rx="8" fill="#a5d8ff" stroke="#1971c2" stroke-width="2"/>
<text x="350" y="124" font-size="16" fill="#1e1e1e" text-anchor="middle" dominant-baseline="hanging">
<tspan x="350" dy="0">API Gateway</tspan>
<tspan x="350" dy="20">(限流/計費/鑑權)</tspan>
</text>
<rect x="500" y="110" width="180" height="66" rx="8" fill="#ffec99" stroke="#e8590c" stroke-width="2"/>
<text x="590" y="124" font-size="16" fill="#1e1e1e" text-anchor="middle" dominant-baseline="hanging">
<tspan x="590" dy="0">請求佇列</tspan>
<tspan x="590" dy="20">(依優先級排序)</tspan>
</text>
<rect x="500" y="250" width="200" height="70" rx="8" fill="#ffec99" stroke="#e8590c" stroke-width="2"/>
<text x="600" y="264" font-size="16" fill="#1e1e1e" text-anchor="middle" dominant-baseline="hanging">
<tspan x="600" dy="0">批次排程器</tspan>
<tspan x="600" dy="20">(continuous batching)</tspan>
</text>
<rect x="500" y="400" width="200" height="70" rx="8" fill="#ffec99" stroke="#e8590c" stroke-width="2"/>
<text x="600" y="414" font-size="16" fill="#1e1e1e" text-anchor="middle" dominant-baseline="hanging">
<tspan x="600" dy="0">GPU Worker</tspan>
<tspan x="600" dy="20">(prefill / decode)</tspan>
</text>
<rect x="760" y="400" width="170" height="70" rx="8" fill="#ffec99" stroke="#e8590c" stroke-width="2"/>
<text x="845" y="414" font-size="16" fill="#1e1e1e" text-anchor="middle" dominant-baseline="hanging">
<tspan x="845" dy="0">KV cache</tspan>
<tspan x="845" dy="20">(顯存瓶頸)</tspan>
</text>
<rect x="760" y="250" width="170" height="70" rx="8" fill="#ffec99" stroke="#e8590c" stroke-width="2"/>
<text x="845" y="272" font-size="16" fill="#1e1e1e" text-anchor="middle" dominant-baseline="hanging">
<tspan x="845" dy="0">模型權重 (量化)</tspan>
</text>
<rect x="40" y="410" width="200" height="70" rx="8" fill="#b2f2bb" stroke="#2f9e44" stroke-width="2"/>
<text x="140" y="424" font-size="16" fill="#1e1e1e" text-anchor="middle" dominant-baseline="hanging">
<tspan x="140" dy="0">客戶端 (SSE 串流)</tspan>
<tspan x="140" dy="20">逐 token 回吐</tspan>
</text>
<polyline points="202,143 256,143" fill="none" stroke="#1971c2" stroke-width="2" marker-end="url(#ah760da0)" stroke-linecap="round" stroke-linejoin="round"/>
<polyline points="442,143 498,143" fill="none" stroke="#1971c2" stroke-width="2" marker-end="url(#ah760da0)" stroke-linecap="round" stroke-linejoin="round"/>
<polyline points="590,178 590,248" fill="none" stroke="#e8590c" stroke-width="2" marker-end="url(#ah60a55d)" stroke-linecap="round" stroke-linejoin="round"/>
<polyline points="590,322 590,398" fill="none" stroke="#e8590c" stroke-width="2" marker-end="url(#ah60a55d)" stroke-linecap="round" stroke-linejoin="round"/>
<polyline points="702,285 758,285" fill="none" stroke="#e8590c" stroke-width="2" marker-end="url(#ah60a55d)" stroke-linecap="round" stroke-linejoin="round"/>
<polyline points="702,435 758,435" fill="none" stroke="#e8590c" stroke-width="2" marker-end="url(#ah60a55d)" stroke-linecap="round" stroke-linejoin="round"/>
<polyline points="498,445 242,445" fill="none" stroke="#2f9e44" stroke-width="2" marker-end="url(#ah78c166)" stroke-linecap="round" stroke-linejoin="round"/>
<text x="712" y="250" font-size="13" fill="#e8590c" text-anchor="start" dominant-baseline="hanging">
<tspan x="712" dy="0">讀模型</tspan>
</text>
<text x="300" y="420" font-size="13" fill="#2f9e44" text-anchor="start" dominant-baseline="hanging">
<tspan x="300" dy="0">每 step 產出的 token</tspan>
</text>
<text x="706" y="350" font-size="13" fill="#e8590c" text-anchor="start" dominant-baseline="hanging">
<tspan x="706" dy="0">逐 token 讀寫 KV cache</tspan>
</text>
</svg>
