<?xml version="1.0" encoding="UTF-8"?>
<svg xmlns="http://www.w3.org/2000/svg" viewBox="16 0 928 519" width="928" height="519" font-family="system-ui,'Segoe UI','Microsoft JhengHei',sans-serif">
<defs>
<marker id="ah760da0" viewBox="0 0 10 10" refX="9" refY="5" markerWidth="7" markerHeight="7" orient="auto-start-reverse"><path d="M0,0 L10,5 L0,10 z" fill="#1971c2"/></marker>
<marker id="ah60a55d" viewBox="0 0 10 10" refX="9" refY="5" markerWidth="7" markerHeight="7" orient="auto-start-reverse"><path d="M0,0 L10,5 L0,10 z" fill="#e8590c"/></marker>
<marker id="ah78c166" viewBox="0 0 10 10" refX="9" refY="5" markerWidth="7" markerHeight="7" orient="auto-start-reverse"><path d="M0,0 L10,5 L0,10 z" fill="#2f9e44"/></marker>
<marker id="ah9d6d30" viewBox="0 0 10 10" refX="9" refY="5" markerWidth="7" markerHeight="7" orient="auto-start-reverse"><path d="M0,0 L10,5 L0,10 z" fill="#ff7b72"/></marker>
</defs>
<rect x="16" y="0" width="928" height="519" fill="#ffffff"/>
<text x="40" y="24" font-size="22" fill="#1e1e1e" text-anchor="start" dominant-baseline="hanging">
<tspan x="40" dy="0">API Gateway / Load Balancer — 高階架構（請求=藍 控制面=黃 後端=綠）</tspan>
</text>
<rect x="40" y="200" width="150" height="64" rx="8" fill="#a5d8ff" stroke="#1971c2" stroke-width="2"/>
<text x="115" y="220" font-size="16" fill="#1e1e1e" text-anchor="middle" dominant-baseline="hanging">
<tspan x="115" dy="0">Client</tspan>
</text>
<rect x="250" y="200" width="150" height="64" rx="8" fill="#a5d8ff" stroke="#1971c2" stroke-width="2"/>
<text x="325" y="213" font-size="14" fill="#1e1e1e" text-anchor="middle" dominant-baseline="hanging">
<tspan x="325" dy="0">L4 LB</tspan>
<tspan x="325" dy="17.5">(分流到 GW)</tspan>
</text>
<rect x="460" y="180" width="190" height="104" rx="8" fill="#a5d8ff" stroke="#1971c2" stroke-width="2"/>
<text x="555" y="196" font-size="14" fill="#1e1e1e" text-anchor="middle" dominant-baseline="hanging">
<tspan x="555" dy="0">API Gateway (L7)</tspan>
<tspan x="555" dy="17.5">認證·路由·限流</tspan>
<tspan x="555" dy="17.5">·LB·健康·熔斷</tspan>
</text>
<rect x="460" y="40" width="190" height="64" rx="8" fill="#ffec99" stroke="#e8590c" stroke-width="2"/>
<text x="555" y="53" font-size="14" fill="#1e1e1e" text-anchor="middle" dominant-baseline="hanging">
<tspan x="555" dy="0">控制面：路由表 /</tspan>
<tspan x="555" dy="17.5">後端池 / 健康狀態</tspan>
</text>
<rect x="460" y="360" width="190" height="56" rx="8" fill="#ffec99" stroke="#e8590c" stroke-width="2"/>
<text x="555" y="376" font-size="14" fill="#1e1e1e" text-anchor="middle" dominant-baseline="hanging">
<tspan x="555" dy="0">健康探測 /healthz</tspan>
</text>
<rect x="740" y="70" width="180" height="60" rx="8" fill="#b2f2bb" stroke="#2f9e44" stroke-width="2"/>
<text x="830" y="78" font-size="14" fill="#1e1e1e" text-anchor="middle" dominant-baseline="hanging">
<tspan x="830" dy="0">/users 池</tspan>
<tspan x="830" dy="17.5">users-1 / 2 / 3</tspan>
</text>
<rect x="740" y="200" width="180" height="60" rx="8" fill="#b2f2bb" stroke="#2f9e44" stroke-width="2"/>
<text x="830" y="208" font-size="14" fill="#1e1e1e" text-anchor="middle" dominant-baseline="hanging">
<tspan x="830" dy="0">/orders 池</tspan>
<tspan x="830" dy="17.5">orders-1 / 2</tspan>
</text>
<rect x="740" y="330" width="180" height="60" rx="8" fill="#b2f2bb" stroke="#2f9e44" stroke-width="2"/>
<text x="830" y="338" font-size="14" fill="#1e1e1e" text-anchor="middle" dominant-baseline="hanging">
<tspan x="830" dy="0">/pay 池</tspan>
<tspan x="830" dy="17.5">pay-1 / 2 (熔斷中)</tspan>
</text>
<polyline points="192,232 248,232" fill="none" stroke="#1971c2" stroke-width="2" marker-end="url(#ah760da0)" stroke-linecap="round" stroke-linejoin="round"/>
<polyline points="402,232 458,232" fill="none" stroke="#1971c2" stroke-width="2" marker-end="url(#ah760da0)" stroke-linecap="round" stroke-linejoin="round"/>
<polyline points="555,178 555,106" fill="none" stroke="#e8590c" stroke-width="2" stroke-dasharray="8 6" marker-end="url(#ah60a55d)" stroke-linecap="round" stroke-linejoin="round"/>
<polyline points="555,360 555,286" fill="none" stroke="#e8590c" stroke-width="2" stroke-dasharray="8 6" marker-end="url(#ah60a55d)" stroke-linecap="round" stroke-linejoin="round"/>
<polyline points="652,210 736,100" fill="none" stroke="#2f9e44" stroke-width="2" marker-end="url(#ah78c166)" stroke-linecap="round" stroke-linejoin="round"/>
<polyline points="652,232 736,230" fill="none" stroke="#2f9e44" stroke-width="2" marker-end="url(#ah78c166)" stroke-linecap="round" stroke-linejoin="round"/>
<polyline points="652,256 736,360" fill="none" stroke="#ff7b72" stroke-width="2" stroke-dasharray="2 6" marker-end="url(#ah9d6d30)" stroke-linecap="round" stroke-linejoin="round"/>
<text x="656" y="300" font-size="12" fill="#ff7b72" text-anchor="start" dominant-baseline="hanging">
<tspan x="656" dy="0">熔斷:不導流</tspan>
</text>
<text x="40" y="470" font-size="14" fill="#495057" text-anchor="start" dominant-baseline="hanging">
<tspan x="40" dy="0">請求路徑：Client → L4 LB(挑一台 GW) → API Gateway(L7：認證/路由/限流/LB/健康/熔斷) → 對應服務池內挑一台健康後端。控制面(黃,虛線)維護路由表與健康狀態；熔斷打開的後端(紅,點線)被繞過。</tspan>
</text>
</svg>
