<?xml version="1.0" encoding="UTF-8"?>
<svg xmlns="http://www.w3.org/2000/svg" viewBox="16 0 1078 418" width="1078" height="418" font-family="system-ui,'Segoe UI','Microsoft JhengHei',sans-serif">
<defs>
<marker id="ah760da0" viewBox="0 0 10 10" refX="9" refY="5" markerWidth="7" markerHeight="7" orient="auto-start-reverse"><path d="M0,0 L10,5 L0,10 z" fill="#1971c2"/></marker>
<marker id="ah60a55d" viewBox="0 0 10 10" refX="9" refY="5" markerWidth="7" markerHeight="7" orient="auto-start-reverse"><path d="M0,0 L10,5 L0,10 z" fill="#e8590c"/></marker>
<marker id="ah78c166" viewBox="0 0 10 10" refX="9" refY="5" markerWidth="7" markerHeight="7" orient="auto-start-reverse"><path d="M0,0 L10,5 L0,10 z" fill="#2f9e44"/></marker>
</defs>
<rect x="16" y="0" width="1078" height="418" fill="#ffffff"/>
<text x="40" y="24" font-size="22" fill="#1e1e1e" text-anchor="start" dominant-baseline="hanging">
<tspan x="40" dy="0">Messenger — 訊息投遞架構（送/寫=藍 即時投遞/推播=綠 基建=黃）</tspan>
</text>
<rect x="40" y="110" width="150" height="64" rx="8" fill="#a5d8ff" stroke="#1971c2" stroke-width="2"/>
<text x="115" y="130" font-size="16" fill="#1e1e1e" text-anchor="middle" dominant-baseline="hanging">
<tspan x="115" dy="0">Client A (送)</tspan>
</text>
<rect x="250" y="110" width="160" height="64" rx="8" fill="#a5d8ff" stroke="#1971c2" stroke-width="2"/>
<text x="330" y="122" font-size="15" fill="#1e1e1e" text-anchor="middle" dominant-baseline="hanging">
<tspan x="330" dy="0">WS Gateway 1</tspan>
<tspan x="330" dy="18.75">(A 的長連線)</tspan>
</text>
<rect x="470" y="110" width="160" height="64" rx="8" fill="#a5d8ff" stroke="#1971c2" stroke-width="2"/>
<text x="550" y="130" font-size="16" fill="#1e1e1e" text-anchor="middle" dominant-baseline="hanging">
<tspan x="550" dy="0">訊息服務</tspan>
</text>
<rect x="470" y="230" width="160" height="64" rx="8" fill="#ffec99" stroke="#e8590c" stroke-width="2"/>
<text x="550" y="242" font-size="14" fill="#1e1e1e" text-anchor="middle" dominant-baseline="hanging">
<tspan x="550" dy="0">連線註冊表 (Redis)</tspan>
<tspan x="550" dy="17.5">user→gateway</tspan>
</text>
<rect x="470" y="330" width="160" height="64" rx="8" fill="#ffec99" stroke="#e8590c" stroke-width="2"/>
<text x="550" y="342" font-size="14" fill="#1e1e1e" text-anchor="middle" dominant-baseline="hanging">
<tspan x="550" dy="0">訊息庫</tspan>
<tspan x="550" dy="17.5">(持久化+序號)</tspan>
</text>
<rect x="690" y="110" width="160" height="64" rx="8" fill="#ffec99" stroke="#e8590c" stroke-width="2"/>
<text x="770" y="130" font-size="15" fill="#1e1e1e" text-anchor="middle" dominant-baseline="hanging">
<tspan x="770" dy="0">Redis Pub/Sub</tspan>
</text>
<rect x="910" y="110" width="160" height="64" rx="8" fill="#b2f2bb" stroke="#2f9e44" stroke-width="2"/>
<text x="990" y="122" font-size="15" fill="#1e1e1e" text-anchor="middle" dominant-baseline="hanging">
<tspan x="990" dy="0">WS Gateway 2</tspan>
<tspan x="990" dy="18.75">(B 的長連線)</tspan>
</text>
<rect x="910" y="240" width="160" height="64" rx="8" fill="#b2f2bb" stroke="#2f9e44" stroke-width="2"/>
<text x="990" y="260" font-size="16" fill="#1e1e1e" text-anchor="middle" dominant-baseline="hanging">
<tspan x="990" dy="0">Client B (收)</tspan>
</text>
<rect x="690" y="330" width="160" height="64" rx="8" fill="#ffec99" stroke="#e8590c" stroke-width="2"/>
<text x="770" y="350" font-size="15" fill="#1e1e1e" text-anchor="middle" dominant-baseline="hanging">
<tspan x="770" dy="0">離線佇列</tspan>
</text>
<rect x="910" y="330" width="160" height="64" rx="8" fill="#b2f2bb" stroke="#2f9e44" stroke-width="2"/>
<text x="990" y="350" font-size="15" fill="#1e1e1e" text-anchor="middle" dominant-baseline="hanging">
<tspan x="990" dy="0">推播 APNs/FCM</tspan>
</text>
<polyline points="192,142 248,142" fill="none" stroke="#1971c2" stroke-width="2" marker-end="url(#ah760da0)" stroke-linecap="round" stroke-linejoin="round"/>
<polyline points="412,142 468,142" fill="none" stroke="#1971c2" stroke-width="2" marker-end="url(#ah760da0)" stroke-linecap="round" stroke-linejoin="round"/>
<polyline points="550,176 550,228" fill="none" stroke="#e8590c" stroke-width="2" marker-end="url(#ah60a55d)" stroke-linecap="round" stroke-linejoin="round"/>
<polyline points="600,176 600,328" fill="none" stroke="#1971c2" stroke-width="2" marker-end="url(#ah760da0)" stroke-linecap="round" stroke-linejoin="round"/>
<polyline points="632,142 688,142" fill="none" stroke="#2f9e44" stroke-width="2" marker-end="url(#ah78c166)" stroke-linecap="round" stroke-linejoin="round"/>
<polyline points="852,142 908,142" fill="none" stroke="#2f9e44" stroke-width="2" marker-end="url(#ah78c166)" stroke-linecap="round" stroke-linejoin="round"/>
<polyline points="990,176 990,238" fill="none" stroke="#2f9e44" stroke-width="2" marker-end="url(#ah78c166)" stroke-linecap="round" stroke-linejoin="round"/>
<polyline points="632,362 688,362" fill="none" stroke="#e8590c" stroke-width="2" marker-end="url(#ah60a55d)" stroke-linecap="round" stroke-linejoin="round"/>
<polyline points="852,362 908,362" fill="none" stroke="#2f9e44" stroke-width="2" marker-end="url(#ah78c166)" stroke-linecap="round" stroke-linejoin="round"/>
<text x="660" y="300" font-size="13" fill="#e8590c" text-anchor="start" dominant-baseline="hanging">
<tspan x="660" dy="0">B 離線時：查不到 gateway →</tspan>
</text>
</svg>
