<?xml version="1.0" encoding="UTF-8"?>
<svg xmlns="http://www.w3.org/2000/svg" viewBox="16 0 878 448" width="878" height="448" font-family="system-ui,'Segoe UI','Microsoft JhengHei',sans-serif">
<defs>
<marker id="ah760da0" viewBox="0 0 10 10" refX="9" refY="5" markerWidth="7" markerHeight="7" orient="auto-start-reverse"><path d="M0,0 L10,5 L0,10 z" fill="#1971c2"/></marker>
<marker id="ah78c166" viewBox="0 0 10 10" refX="9" refY="5" markerWidth="7" markerHeight="7" orient="auto-start-reverse"><path d="M0,0 L10,5 L0,10 z" fill="#2f9e44"/></marker>
<marker id="ah60a55d" viewBox="0 0 10 10" refX="9" refY="5" markerWidth="7" markerHeight="7" orient="auto-start-reverse"><path d="M0,0 L10,5 L0,10 z" fill="#e8590c"/></marker>
</defs>
<rect x="16" y="0" width="878" height="448" fill="#ffffff"/>
<text x="40" y="24" font-size="22" fill="#1e1e1e" text-anchor="start" dominant-baseline="hanging">
<tspan x="40" dy="0">RoboTaxi 叫車 — 高階架構（乘客/寫=藍 位置/推播=綠 基建=黃）</tspan>
</text>
<rect x="40" y="100" width="150" height="64" rx="8" fill="#a5d8ff" stroke="#1971c2" stroke-width="2"/>
<text x="115" y="120" font-size="16" fill="#1e1e1e" text-anchor="middle" dominant-baseline="hanging">
<tspan x="115" dy="0">乘客 App (叫車)</tspan>
</text>
<rect x="250" y="100" width="150" height="64" rx="8" fill="#a5d8ff" stroke="#1971c2" stroke-width="2"/>
<text x="325" y="120" font-size="16" fill="#1e1e1e" text-anchor="middle" dominant-baseline="hanging">
<tspan x="325" dy="0">API Gateway</tspan>
</text>
<rect x="460" y="100" width="160" height="64" rx="8" fill="#ffec99" stroke="#e8590c" stroke-width="2"/>
<text x="540" y="120" font-size="16" fill="#1e1e1e" text-anchor="middle" dominant-baseline="hanging">
<tspan x="540" dy="0">媒合引擎 Matcher</tspan>
</text>
<rect x="700" y="100" width="170" height="64" rx="8" fill="#ffec99" stroke="#e8590c" stroke-width="2"/>
<text x="785" y="113" font-size="16" fill="#1e1e1e" text-anchor="middle" dominant-baseline="hanging">
<tspan x="785" dy="0">地理空間索引</tspan>
<tspan x="785" dy="20">(geohash/S2)</tspan>
</text>
<rect x="460" y="240" width="160" height="64" rx="8" fill="#ffec99" stroke="#e8590c" stroke-width="2"/>
<text x="540" y="253" font-size="16" fill="#1e1e1e" text-anchor="middle" dominant-baseline="hanging">
<tspan x="540" dy="0">狀態 DB</tspan>
<tspan x="540" dy="20">(rides 原子指派)</tspan>
</text>
<rect x="250" y="240" width="150" height="64" rx="8" fill="#ffec99" stroke="#e8590c" stroke-width="2"/>
<text x="325" y="260" font-size="16" fill="#1e1e1e" text-anchor="middle" dominant-baseline="hanging">
<tspan x="325" dy="0">Pub/Sub</tspan>
</text>
<rect x="700" y="360" width="170" height="64" rx="8" fill="#b2f2bb" stroke="#2f9e44" stroke-width="2"/>
<text x="785" y="380" font-size="16" fill="#1e1e1e" text-anchor="middle" dominant-baseline="hanging">
<tspan x="785" dy="0">位置更新處理</tspan>
</text>
<rect x="460" y="360" width="160" height="64" rx="8" fill="#b2f2bb" stroke="#2f9e44" stroke-width="2"/>
<text x="540" y="373" font-size="16" fill="#1e1e1e" text-anchor="middle" dominant-baseline="hanging">
<tspan x="540" dy="0">位置串流閘道</tspan>
<tspan x="540" dy="20">(WebSocket)</tspan>
</text>
<rect x="40" y="360" width="150" height="64" rx="8" fill="#b2f2bb" stroke="#2f9e44" stroke-width="2"/>
<text x="115" y="373" font-size="16" fill="#1e1e1e" text-anchor="middle" dominant-baseline="hanging">
<tspan x="115" dy="0">司機 App</tspan>
<tspan x="115" dy="20">(高頻 GPS)</tspan>
</text>
<polyline points="192,132 248,132" fill="none" stroke="#1971c2" stroke-width="2" marker-end="url(#ah760da0)" stroke-linecap="round" stroke-linejoin="round"/>
<polyline points="402,132 458,132" fill="none" stroke="#1971c2" stroke-width="2" marker-end="url(#ah760da0)" stroke-linecap="round" stroke-linejoin="round"/>
<polyline points="622,132 698,132" fill="none" stroke="#1971c2" stroke-width="2" marker-end="url(#ah760da0)" stroke-linecap="round" stroke-linejoin="round"/>
<polyline points="540,164 540,238" fill="none" stroke="#1971c2" stroke-width="2" marker-end="url(#ah760da0)" stroke-linecap="round" stroke-linejoin="round"/>
<polyline points="458,272 402,272" fill="none" stroke="#2f9e44" stroke-width="2" marker-end="url(#ah78c166)" stroke-linecap="round" stroke-linejoin="round"/>
<polyline points="325,240 325,164" fill="none" stroke="#2f9e44" stroke-width="2" marker-end="url(#ah78c166)" stroke-linecap="round" stroke-linejoin="round"/>
<polyline points="192,392 458,392" fill="none" stroke="#2f9e44" stroke-width="2" marker-end="url(#ah78c166)" stroke-linecap="round" stroke-linejoin="round"/>
<polyline points="622,392 698,392" fill="none" stroke="#2f9e44" stroke-width="2" marker-end="url(#ah78c166)" stroke-linecap="round" stroke-linejoin="round"/>
<polyline points="785,360 785,164" fill="none" stroke="#2f9e44" stroke-width="2" marker-end="url(#ah78c166)" stroke-linecap="round" stroke-linejoin="round"/>
<polyline points="540,304 540,360" fill="none" stroke="#e8590c" stroke-width="2" marker-end="url(#ah60a55d)" stroke-linecap="round" stroke-linejoin="round"/>
</svg>
