<?xml version="1.0" encoding="UTF-8"?>
<svg xmlns="http://www.w3.org/2000/svg" viewBox="16 0 688 478" width="688" height="478" font-family="system-ui,'Segoe UI','Microsoft JhengHei',sans-serif">
<defs>
<marker id="ah60a55d" viewBox="0 0 10 10" refX="9" refY="5" markerWidth="7" markerHeight="7" orient="auto-start-reverse"><path d="M0,0 L10,5 L0,10 z" fill="#e8590c"/></marker>
<marker id="ah760da0" viewBox="0 0 10 10" refX="9" refY="5" markerWidth="7" markerHeight="7" orient="auto-start-reverse"><path d="M0,0 L10,5 L0,10 z" fill="#1971c2"/></marker>
<marker id="ah78c166" viewBox="0 0 10 10" refX="9" refY="5" markerWidth="7" markerHeight="7" orient="auto-start-reverse"><path d="M0,0 L10,5 L0,10 z" fill="#2f9e44"/></marker>
</defs>
<rect x="16" y="0" width="688" height="478" fill="#ffffff"/>
<text x="40" y="24" font-size="22" fill="#1e1e1e" text-anchor="start" dominant-baseline="hanging">
<tspan x="40" dy="0">地圖路徑規劃 — 高階架構（查詢=藍 回應=綠 基建=黃）</tspan>
</text>
<rect x="40" y="90" width="160" height="64" rx="8" fill="#ffec99" stroke="#e8590c" stroke-width="2"/>
<text x="122" y="110" font-size="15" fill="#1e1e1e" text-anchor="middle" dominant-baseline="hanging">
<tspan x="122" dy="0">地圖資料(OSM)</tspan>
</text>
<rect x="250" y="90" width="160" height="64" rx="8" fill="#ffec99" stroke="#e8590c" stroke-width="2"/>
<text x="330" y="110" font-size="15" fill="#1e1e1e" text-anchor="middle" dominant-baseline="hanging">
<tspan x="330" dy="0">圖建構(節點/邊)</tspan>
</text>
<rect x="460" y="90" width="160" height="64" rx="8" fill="#ffec99" stroke="#e8590c" stroke-width="2"/>
<text x="540" y="103" font-size="15" fill="#1e1e1e" text-anchor="middle" dominant-baseline="hanging">
<tspan x="540" dy="0">預處理(CH)</tspan>
<tspan x="540" dy="18.75">→捷徑索引</tspan>
</text>
<rect x="40" y="250" width="160" height="64" rx="8" fill="#a5d8ff" stroke="#1971c2" stroke-width="2"/>
<text x="120" y="263" font-size="15" fill="#1e1e1e" text-anchor="middle" dominant-baseline="hanging">
<tspan x="120" dy="0">查詢</tspan>
<tspan x="120" dy="18.75">(from,to,metric)</tspan>
</text>
<rect x="250" y="250" width="180" height="64" rx="8" fill="#a5d8ff" stroke="#1971c2" stroke-width="2"/>
<text x="340" y="263" font-size="15" fill="#1e1e1e" text-anchor="middle" dominant-baseline="hanging">
<tspan x="340" dy="0">路由服務</tspan>
<tspan x="340" dy="18.75">(Dijkstra / A*)</tspan>
</text>
<rect x="490" y="250" width="180" height="64" rx="8" fill="#b2f2bb" stroke="#2f9e44" stroke-width="2"/>
<text x="580" y="263" font-size="15" fill="#1e1e1e" text-anchor="middle" dominant-baseline="hanging">
<tspan x="580" dy="0">路徑 + ETA</tspan>
<tspan x="580" dy="18.75">回應</tspan>
</text>
<rect x="250" y="390" width="180" height="64" rx="8" fill="#ffec99" stroke="#e8590c" stroke-width="2"/>
<text x="340" y="403" font-size="15" fill="#1e1e1e" text-anchor="middle" dominant-baseline="hanging">
<tspan x="340" dy="0">即時路況串流</tspan>
<tspan x="340" dy="18.75">→ 更新邊權</tspan>
</text>
<rect x="40" y="390" width="160" height="64" rx="8" fill="#ffec99" stroke="#e8590c" stroke-width="2"/>
<text x="120" y="403" font-size="15" fill="#1e1e1e" text-anchor="middle" dominant-baseline="hanging">
<tspan x="120" dy="0">瓦片服務</tspan>
<tspan x="120" dy="18.75">→ CDN</tspan>
</text>
<polyline points="202,122 248,122" fill="none" stroke="#e8590c" stroke-width="2" marker-end="url(#ah60a55d)" stroke-linecap="round" stroke-linejoin="round"/>
<polyline points="412,122 458,122" fill="none" stroke="#e8590c" stroke-width="2" marker-end="url(#ah60a55d)" stroke-linecap="round" stroke-linejoin="round"/>
<polyline points="540,156 540,248" fill="none" stroke="#e8590c" stroke-width="2" marker-end="url(#ah60a55d)" stroke-linecap="round" stroke-linejoin="round"/>
<polyline points="540,156 340,248" fill="none" stroke="#e8590c" stroke-width="2" marker-end="url(#ah60a55d)" stroke-linecap="round" stroke-linejoin="round"/>
<polyline points="202,282 248,282" fill="none" stroke="#1971c2" stroke-width="2" marker-end="url(#ah760da0)" stroke-linecap="round" stroke-linejoin="round"/>
<polyline points="432,282 488,282" fill="none" stroke="#2f9e44" stroke-width="2" marker-end="url(#ah78c166)" stroke-linecap="round" stroke-linejoin="round"/>
<polyline points="340,388 340,316" fill="none" stroke="#e8590c" stroke-width="2" marker-end="url(#ah60a55d)" stroke-linecap="round" stroke-linejoin="round"/>
</svg>
