<?xml version="1.0" encoding="UTF-8"?>
<svg xmlns="http://www.w3.org/2000/svg" viewBox="16 0 898 578" width="898" height="578" font-family="system-ui,'Segoe UI','Microsoft JhengHei',sans-serif">
<defs>
<marker id="ah760da0" viewBox="0 0 10 10" refX="9" refY="5" markerWidth="7" markerHeight="7" orient="auto-start-reverse"><path d="M0,0 L10,5 L0,10 z" fill="#1971c2"/></marker>
<marker id="ah60a55d" viewBox="0 0 10 10" refX="9" refY="5" markerWidth="7" markerHeight="7" orient="auto-start-reverse"><path d="M0,0 L10,5 L0,10 z" fill="#e8590c"/></marker>
<marker id="ah78c166" viewBox="0 0 10 10" refX="9" refY="5" markerWidth="7" markerHeight="7" orient="auto-start-reverse"><path d="M0,0 L10,5 L0,10 z" fill="#2f9e44"/></marker>
<marker id="ah9d6d30" viewBox="0 0 10 10" refX="9" refY="5" markerWidth="7" markerHeight="7" orient="auto-start-reverse"><path d="M0,0 L10,5 L0,10 z" fill="#ff7b72"/></marker>
</defs>
<rect x="16" y="0" width="898" height="578" fill="#ffffff"/>
<text x="40" y="24" font-size="22" fill="#1e1e1e" text-anchor="start" dominant-baseline="hanging">
<tspan x="40" dy="0">Webhook 平台 — 高階架構（事件/入列=藍 投遞→端點=綠 基建=黃）</tspan>
</text>
<rect x="40" y="110" width="160" height="64" rx="8" fill="#a5d8ff" stroke="#1971c2" stroke-width="2"/>
<text x="120" y="130" font-size="16" fill="#1e1e1e" text-anchor="middle" dominant-baseline="hanging">
<tspan x="120" dy="0">事件來源</tspan>
</text>
<rect x="250" y="110" width="160" height="64" rx="8" fill="#a5d8ff" stroke="#1971c2" stroke-width="2"/>
<text x="330" y="130" font-size="16" fill="#1e1e1e" text-anchor="middle" dominant-baseline="hanging">
<tspan x="330" dy="0">Ingest API</tspan>
</text>
<rect x="460" y="110" width="160" height="64" rx="8" fill="#a5d8ff" stroke="#1971c2" stroke-width="2"/>
<text x="540" y="130" font-size="16" fill="#1e1e1e" text-anchor="middle" dominant-baseline="hanging">
<tspan x="540" dy="0">Fan-out</tspan>
</text>
<rect x="460" y="230" width="160" height="70" rx="8" fill="#ffec99" stroke="#e8590c" stroke-width="2"/>
<text x="540" y="248" font-size="15" fill="#1e1e1e" text-anchor="middle" dominant-baseline="hanging">
<tspan x="540" dy="0">投遞佇列</tspan>
<tspan x="540" dy="18.75">(依 endpoint 分區)</tspan>
</text>
<rect x="250" y="235" width="150" height="60" rx="8" fill="#ffec99" stroke="#e8590c" stroke-width="2"/>
<text x="325" y="253" font-size="15" fill="#1e1e1e" text-anchor="middle" dominant-baseline="hanging">
<tspan x="325" dy="0">HMAC 簽章</tspan>
</text>
<rect x="460" y="360" width="160" height="70" rx="8" fill="#b2f2bb" stroke="#2f9e44" stroke-width="2"/>
<text x="540" y="378" font-size="15" fill="#1e1e1e" text-anchor="middle" dominant-baseline="hanging">
<tspan x="540" dy="0">投遞 Worker</tspan>
<tspan x="540" dy="18.75">(簽章後 POST)</tspan>
</text>
<rect x="720" y="360" width="170" height="70" rx="8" fill="#b2f2bb" stroke="#2f9e44" stroke-width="2"/>
<text x="805" y="378" font-size="15" fill="#1e1e1e" text-anchor="middle" dominant-baseline="hanging">
<tspan x="805" dy="0">外部端點</tspan>
<tspan x="805" dy="18.75">(不可靠 · 驗簽)</tspan>
</text>
<rect x="720" y="235" width="170" height="60" rx="8" fill="#ffec99" stroke="#e8590c" stroke-width="2"/>
<text x="805" y="253" font-size="15" fill="#1e1e1e" text-anchor="middle" dominant-baseline="hanging">
<tspan x="805" dy="0">熔斷器 (慢端點隔離)</tspan>
</text>
<rect x="250" y="360" width="160" height="70" rx="8" fill="#ffec99" stroke="#e8590c" stroke-width="2"/>
<text x="330" y="378" font-size="15" fill="#1e1e1e" text-anchor="middle" dominant-baseline="hanging">
<tspan x="330" dy="0">重試排程</tspan>
<tspan x="330" dy="18.75">(退避+抖動)</tspan>
</text>
<rect x="250" y="490" width="160" height="64" rx="8" fill="#ffec99" stroke="#e8590c" stroke-width="2"/>
<text x="330" y="510" font-size="16" fill="#1e1e1e" text-anchor="middle" dominant-baseline="hanging">
<tspan x="330" dy="0">DLQ 死信佇列</tspan>
</text>
<rect x="460" y="490" width="160" height="64" rx="8" fill="#ffec99" stroke="#e8590c" stroke-width="2"/>
<text x="540" y="510" font-size="15" fill="#1e1e1e" text-anchor="middle" dominant-baseline="hanging">
<tspan x="540" dy="0">投遞記錄 DB</tspan>
</text>
<polyline points="202,142 248,142" fill="none" stroke="#1971c2" stroke-width="2" marker-end="url(#ah760da0)" stroke-linecap="round" stroke-linejoin="round"/>
<polyline points="412,142 458,142" fill="none" stroke="#1971c2" stroke-width="2" marker-end="url(#ah760da0)" stroke-linecap="round" stroke-linejoin="round"/>
<polyline points="540,176 540,228" fill="none" stroke="#1971c2" stroke-width="2" marker-end="url(#ah760da0)" stroke-linecap="round" stroke-linejoin="round"/>
<polyline points="540,302 540,358" fill="none" stroke="#1971c2" stroke-width="2" marker-end="url(#ah760da0)" stroke-linecap="round" stroke-linejoin="round"/>
<polyline points="402,265 458,265" fill="none" stroke="#e8590c" stroke-width="2" marker-end="url(#ah60a55d)" stroke-linecap="round" stroke-linejoin="round"/>
<polyline points="622,394 718,394" fill="none" stroke="#2f9e44" stroke-width="2" marker-end="url(#ah78c166)" stroke-linecap="round" stroke-linejoin="round"/>
<polyline points="458,395 412,395" fill="none" stroke="#ff7b72" stroke-width="2" marker-end="url(#ah9d6d30)" stroke-linecap="round" stroke-linejoin="round"/>
<polyline points="330,360 330,304" fill="none" stroke="#e8590c" stroke-width="2" marker-end="url(#ah60a55d)" stroke-linecap="round" stroke-linejoin="round"/>
<polyline points="330,430 330,486" fill="none" stroke="#ff7b72" stroke-width="2" marker-end="url(#ah9d6d30)" stroke-linecap="round" stroke-linejoin="round"/>
<polyline points="540,430 540,486" fill="none" stroke="#e8590c" stroke-width="2" marker-end="url(#ah60a55d)" stroke-linecap="round" stroke-linejoin="round"/>
<polyline points="805,360 805,304" fill="none" stroke="#e8590c" stroke-width="2" marker-end="url(#ah60a55d)" stroke-linecap="round" stroke-linejoin="round"/>
</svg>
