<?xml version="1.0" encoding="UTF-8"?>
<svg xmlns="http://www.w3.org/2000/svg" viewBox="16 0 878 558" width="878" height="558" font-family="system-ui,'Segoe UI','Microsoft JhengHei',sans-serif">
<defs>
<marker id="ah760da0" viewBox="0 0 10 10" refX="9" refY="5" markerWidth="7" markerHeight="7" orient="auto-start-reverse"><path d="M0,0 L10,5 L0,10 z" fill="#1971c2"/></marker>
<marker id="ah60a55d" viewBox="0 0 10 10" refX="9" refY="5" markerWidth="7" markerHeight="7" orient="auto-start-reverse"><path d="M0,0 L10,5 L0,10 z" fill="#e8590c"/></marker>
<marker id="ah78c166" viewBox="0 0 10 10" refX="9" refY="5" markerWidth="7" markerHeight="7" orient="auto-start-reverse"><path d="M0,0 L10,5 L0,10 z" fill="#2f9e44"/></marker>
</defs>
<rect x="16" y="0" width="878" height="558" fill="#ffffff"/>
<text x="40" y="24" font-size="22" fill="#1e1e1e" text-anchor="start" dominant-baseline="hanging">
<tspan x="40" dy="0">直播平台 — 高階架構（攝入/寫=藍 觀眾/聊天=綠 基建=黃）</tspan>
</text>
<rect x="40" y="110" width="160" height="64" rx="8" fill="#a5d8ff" stroke="#1971c2" stroke-width="2"/>
<text x="120" y="130" font-size="16" fill="#1e1e1e" text-anchor="middle" dominant-baseline="hanging">
<tspan x="120" dy="0">主播 (推流)</tspan>
</text>
<rect x="260" y="110" width="160" height="64" rx="8" fill="#a5d8ff" stroke="#1971c2" stroke-width="2"/>
<text x="340" y="122" font-size="16" fill="#1e1e1e" text-anchor="middle" dominant-baseline="hanging">
<tspan x="340" dy="0">攝入 Ingest</tspan>
<tspan x="340" dy="20">(RTMP/SRT)</tspan>
</text>
<rect x="480" y="110" width="160" height="64" rx="8" fill="#ffec99" stroke="#e8590c" stroke-width="2"/>
<text x="560" y="122" font-size="16" fill="#1e1e1e" text-anchor="middle" dominant-baseline="hanging">
<tspan x="560" dy="0">即時轉碼</tspan>
<tspan x="560" dy="20">(多碼率 ABR)</tspan>
</text>
<rect x="700" y="110" width="170" height="64" rx="8" fill="#ffec99" stroke="#e8590c" stroke-width="2"/>
<text x="785" y="122" font-size="16" fill="#1e1e1e" text-anchor="middle" dominant-baseline="hanging">
<tspan x="785" dy="0">打包 Packager</tspan>
<tspan x="785" dy="20">(HLS 滑動視窗)</tspan>
</text>
<rect x="700" y="300" width="170" height="64" rx="8" fill="#ffec99" stroke="#e8590c" stroke-width="2"/>
<text x="785" y="312" font-size="16" fill="#1e1e1e" text-anchor="middle" dominant-baseline="hanging">
<tspan x="785" dy="0">CDN 邊緣</tspan>
<tspan x="785" dy="20">(快取 segment)</tspan>
</text>
<rect x="440" y="300" width="160" height="64" rx="8" fill="#b2f2bb" stroke="#2f9e44" stroke-width="2"/>
<text x="520" y="312" font-size="16" fill="#1e1e1e" text-anchor="middle" dominant-baseline="hanging">
<tspan x="520" dy="0">觀眾 (拉流)</tspan>
<tspan x="520" dy="20">live edge</tspan>
</text>
<rect x="40" y="300" width="160" height="64" rx="8" fill="#ffec99" stroke="#e8590c" stroke-width="2"/>
<text x="120" y="312" font-size="16" fill="#1e1e1e" text-anchor="middle" dominant-baseline="hanging">
<tspan x="120" dy="0">Chat 服務</tspan>
<tspan x="120" dy="20">(分房)</tspan>
</text>
<rect x="240" y="300" width="160" height="64" rx="8" fill="#ffec99" stroke="#e8590c" stroke-width="2"/>
<text x="320" y="312" font-size="16" fill="#1e1e1e" text-anchor="middle" dominant-baseline="hanging">
<tspan x="320" dy="0">Fan-out</tspan>
<tspan x="320" dy="20">(階層廣播)</tspan>
</text>
<rect x="240" y="470" width="160" height="64" rx="8" fill="#b2f2bb" stroke="#2f9e44" stroke-width="2"/>
<text x="320" y="482" font-size="16" fill="#1e1e1e" text-anchor="middle" dominant-baseline="hanging">
<tspan x="320" dy="0">房內觀眾</tspan>
<tspan x="320" dy="20">(收聊天)</tspan>
</text>
<polyline points="202,142 256,142" fill="none" stroke="#1971c2" stroke-width="2" marker-end="url(#ah760da0)" stroke-linecap="round" stroke-linejoin="round"/>
<polyline points="422,142 476,142" fill="none" stroke="#1971c2" stroke-width="2" marker-end="url(#ah760da0)" stroke-linecap="round" stroke-linejoin="round"/>
<polyline points="642,142 696,142" fill="none" stroke="#e8590c" stroke-width="2" marker-end="url(#ah60a55d)" stroke-linecap="round" stroke-linejoin="round"/>
<polyline points="785,176 785,298" fill="none" stroke="#e8590c" stroke-width="2" marker-end="url(#ah60a55d)" stroke-linecap="round" stroke-linejoin="round"/>
<polyline points="698,332 602,332" fill="none" stroke="#2f9e44" stroke-width="2" marker-end="url(#ah78c166)" stroke-linecap="round" stroke-linejoin="round"/>
<polyline points="202,332 238,332" fill="none" stroke="#e8590c" stroke-width="2" marker-end="url(#ah60a55d)" stroke-linecap="round" stroke-linejoin="round"/>
<polyline points="320,366 320,468" fill="none" stroke="#2f9e44" stroke-width="2" marker-end="url(#ah78c166)" stroke-linecap="round" stroke-linejoin="round"/>
<polyline points="440,502 560,364" fill="none" stroke="#2f9e44" stroke-width="2" marker-end="url(#ah78c166)" stroke-linecap="round" stroke-linejoin="round"/>
</svg>
