<?xml version="1.0" encoding="UTF-8"?>
<svg xmlns="http://www.w3.org/2000/svg" viewBox="16 6 898 612" width="898" height="612" font-family="system-ui,'Segoe UI','Microsoft JhengHei',sans-serif">
<defs>
<marker id="ah760da0" viewBox="0 0 10 10" refX="9" refY="5" markerWidth="7" markerHeight="7" orient="auto-start-reverse"><path d="M0,0 L10,5 L0,10 z" fill="#1971c2"/></marker>
<marker id="ah60a55d" viewBox="0 0 10 10" refX="9" refY="5" markerWidth="7" markerHeight="7" orient="auto-start-reverse"><path d="M0,0 L10,5 L0,10 z" fill="#e8590c"/></marker>
<marker id="ah78c166" viewBox="0 0 10 10" refX="9" refY="5" markerWidth="7" markerHeight="7" orient="auto-start-reverse"><path d="M0,0 L10,5 L0,10 z" fill="#2f9e44"/></marker>
</defs>
<rect x="16" y="6" width="898" height="612" fill="#ffffff"/>
<text x="40" y="30" font-size="22" fill="#1e1e1e" text-anchor="start" dominant-baseline="hanging">
<tspan x="40" dy="0">地震預警系統 — 高階架構（事件路徑=藍 即時推播=綠 基建=黃）</tspan>
</text>
<rect x="40" y="110" width="160" height="64" rx="8" fill="#a5d8ff" stroke="#1971c2" stroke-width="2"/>
<text x="120" y="122" font-size="15" fill="#1e1e1e" text-anchor="middle" dominant-baseline="hanging">
<tspan x="120" dy="0">感測器網路</tspan>
<tspan x="120" dy="18.75">(地震儀/手機)</tspan>
</text>
<rect x="260" y="110" width="160" height="64" rx="8" fill="#a5d8ff" stroke="#1971c2" stroke-width="2"/>
<text x="340" y="122" font-size="15" fill="#1e1e1e" text-anchor="middle" dominant-baseline="hanging">
<tspan x="340" dy="0">偵測服務</tspan>
<tspan x="340" dy="18.75">(估震央/規模)</tspan>
</text>
<rect x="480" y="110" width="160" height="64" rx="8" fill="#ffec99" stroke="#e8590c" stroke-width="2"/>
<text x="560" y="122" font-size="15" fill="#1e1e1e" text-anchor="middle" dominant-baseline="hanging">
<tspan x="560" dy="0">事件匯流排</tspan>
<tspan x="560" dy="18.75">(Kafka 高優先)</tspan>
</text>
<rect x="480" y="250" width="160" height="64" rx="8" fill="#a5d8ff" stroke="#1971c2" stroke-width="2"/>
<text x="560" y="262" font-size="15" fill="#1e1e1e" text-anchor="middle" dominant-baseline="hanging">
<tspan x="560" dy="0">地理篩選服務</tspan>
<tspan x="560" dy="18.75">(半徑內收件人)</tspan>
</text>
<rect x="720" y="250" width="170" height="64" rx="8" fill="#ffec99" stroke="#e8590c" stroke-width="2"/>
<text x="805" y="262" font-size="15" fill="#1e1e1e" text-anchor="middle" dominant-baseline="hanging">
<tspan x="805" dy="0">空間索引</tspan>
<tspan x="805" dy="18.75">(geohash/PostGIS)</tspan>
</text>
<rect x="480" y="390" width="160" height="64" rx="8" fill="#ffec99" stroke="#e8590c" stroke-width="2"/>
<text x="560" y="402" font-size="15" fill="#1e1e1e" text-anchor="middle" dominant-baseline="hanging">
<tspan x="560" dy="0">分區佇列</tspan>
<tspan x="560" dy="18.75">(by region)</tspan>
</text>
<rect x="260" y="390" width="160" height="64" rx="8" fill="#b2f2bb" stroke="#2f9e44" stroke-width="2"/>
<text x="340" y="402" font-size="15" fill="#1e1e1e" text-anchor="middle" dominant-baseline="hanging">
<tspan x="340" dy="0">推播閘道</tspan>
<tspan x="340" dy="18.75">(水平擴展+重試)</tspan>
</text>
<rect x="40" y="390" width="160" height="64" rx="8" fill="#b2f2bb" stroke="#2f9e44" stroke-width="2"/>
<text x="120" y="402" font-size="15" fill="#1e1e1e" text-anchor="middle" dominant-baseline="hanging">
<tspan x="120" dy="0">APNs/FCM/簡訊</tspan>
<tspan x="120" dy="18.75">(推播通道)</tspan>
</text>
<rect x="40" y="530" width="160" height="64" rx="8" fill="#b2f2bb" stroke="#2f9e44" stroke-width="2"/>
<text x="120" y="542" font-size="15" fill="#1e1e1e" text-anchor="middle" dominant-baseline="hanging">
<tspan x="120" dy="0">使用者裝置</tspan>
<tspan x="120" dy="18.75">(倒數+避難)</tspan>
</text>
<rect x="260" y="530" width="160" height="64" rx="8" fill="#ffec99" stroke="#e8590c" stroke-width="2"/>
<text x="340" y="542" font-size="15" fill="#1e1e1e" text-anchor="middle" dominant-baseline="hanging">
<tspan x="340" dy="0">DLQ</tspan>
<tspan x="340" dy="18.75">(失敗事後分析)</tspan>
</text>
<polyline points="202,142 258,142" fill="none" stroke="#1971c2" stroke-width="2" marker-end="url(#ah760da0)" stroke-linecap="round" stroke-linejoin="round"/>
<polyline points="422,142 478,142" fill="none" stroke="#1971c2" stroke-width="2" marker-end="url(#ah760da0)" stroke-linecap="round" stroke-linejoin="round"/>
<polyline points="560,176 560,248" fill="none" stroke="#1971c2" stroke-width="2" marker-end="url(#ah760da0)" stroke-linecap="round" stroke-linejoin="round"/>
<polyline points="642,282 718,282" fill="none" stroke="#e8590c" stroke-width="2" marker-end="url(#ah60a55d)" stroke-linecap="round" stroke-linejoin="round"/>
<polyline points="560,316 560,388" fill="none" stroke="#1971c2" stroke-width="2" marker-end="url(#ah760da0)" stroke-linecap="round" stroke-linejoin="round"/>
<polyline points="478,422 422,422" fill="none" stroke="#2f9e44" stroke-width="2" marker-end="url(#ah78c166)" stroke-linecap="round" stroke-linejoin="round"/>
<polyline points="258,422 202,422" fill="none" stroke="#2f9e44" stroke-width="2" marker-end="url(#ah78c166)" stroke-linecap="round" stroke-linejoin="round"/>
<polyline points="120,456 120,528" fill="none" stroke="#2f9e44" stroke-width="2" marker-end="url(#ah78c166)" stroke-linecap="round" stroke-linejoin="round"/>
<polyline points="340,456 340,528" fill="none" stroke="#e8590c" stroke-width="2" marker-end="url(#ah60a55d)" stroke-linecap="round" stroke-linejoin="round"/>
</svg>
