<?xml version="1.0" encoding="UTF-8"?>
<svg xmlns="http://www.w3.org/2000/svg" viewBox="16 0 768 490" width="768" height="490" font-family="system-ui,'Segoe UI','Microsoft JhengHei',sans-serif">
<defs>
<marker id="ah760da0" viewBox="0 0 10 10" refX="9" refY="5" markerWidth="7" markerHeight="7" orient="auto-start-reverse"><path d="M0,0 L10,5 L0,10 z" fill="#1971c2"/></marker>
<marker id="ah78c166" viewBox="0 0 10 10" refX="9" refY="5" markerWidth="7" markerHeight="7" orient="auto-start-reverse"><path d="M0,0 L10,5 L0,10 z" fill="#2f9e44"/></marker>
<marker id="ah60a55d" viewBox="0 0 10 10" refX="9" refY="5" markerWidth="7" markerHeight="7" orient="auto-start-reverse"><path d="M0,0 L10,5 L0,10 z" fill="#e8590c"/></marker>
</defs>
<rect x="16" y="0" width="768" height="490" fill="#ffffff"/>
<text x="40" y="24" font-size="22" fill="#1e1e1e" text-anchor="start" dominant-baseline="hanging">
<tspan x="40" dy="0">工作流引擎 — 高階架構（主流程=藍 回應/推進=綠 基建=黃）</tspan>
</text>
<rect x="40" y="90" width="180" height="64" rx="8" fill="#a5d8ff" stroke="#1971c2" stroke-width="2"/>
<text x="130" y="102" font-size="15" fill="#1e1e1e" text-anchor="middle" dominant-baseline="hanging">
<tspan x="130" dy="0">工作流定義</tspan>
<tspan x="130" dy="18.75">(DAG: step + deps)</tspan>
</text>
<rect x="290" y="90" width="180" height="64" rx="8" fill="#a5d8ff" stroke="#1971c2" stroke-width="2"/>
<text x="380" y="102" font-size="15" fill="#1e1e1e" text-anchor="middle" dominant-baseline="hanging">
<tspan x="380" dy="0">排程器</tspan>
<tspan x="380" dy="18.75">挑 ready step</tspan>
</text>
<rect x="540" y="90" width="180" height="64" rx="8" fill="#a5d8ff" stroke="#1971c2" stroke-width="2"/>
<text x="630" y="102" font-size="15" fill="#1e1e1e" text-anchor="middle" dominant-baseline="hanging">
<tspan x="630" dy="0">Worker</tspan>
<tspan x="630" dy="18.75">執行 step</tspan>
</text>
<rect x="540" y="230" width="180" height="64" rx="8" fill="#ffec99" stroke="#e8590c" stroke-width="2"/>
<text x="630" y="242" font-size="15" fill="#1e1e1e" text-anchor="middle" dominant-baseline="hanging">
<tspan x="630" dy="0">Event Log</tspan>
<tspan x="630" dy="18.75">(事件溯源/durable)</tspan>
</text>
<rect x="290" y="230" width="180" height="64" rx="8" fill="#b2f2bb" stroke="#2f9e44" stroke-width="2"/>
<text x="380" y="242" font-size="15" fill="#1e1e1e" text-anchor="middle" dominant-baseline="hanging">
<tspan x="380" dy="0">重放重建狀態</tspan>
<tspan x="380" dy="18.75">(已完成不重跑)</tspan>
</text>
<rect x="540" y="370" width="180" height="64" rx="8" fill="#ffec99" stroke="#e8590c" stroke-width="2"/>
<text x="630" y="382" font-size="15" fill="#1e1e1e" text-anchor="middle" dominant-baseline="hanging">
<tspan x="630" dy="0">失敗→重試</tspan>
<tspan x="630" dy="18.75">(指數退避)</tspan>
</text>
<rect x="290" y="370" width="180" height="64" rx="8" fill="#ffec99" stroke="#e8590c" stroke-width="2"/>
<text x="380" y="382" font-size="15" fill="#1e1e1e" text-anchor="middle" dominant-baseline="hanging">
<tspan x="380" dy="0">重試上限→saga</tspan>
<tspan x="380" dy="18.75">反向補償</tspan>
</text>
<rect x="40" y="230" width="180" height="64" rx="8" fill="#ffec99" stroke="#e8590c" stroke-width="2"/>
<text x="130" y="242" font-size="15" fill="#1e1e1e" text-anchor="middle" dominant-baseline="hanging">
<tspan x="130" dy="0">審批節點 BLOCKED</tspan>
<tspan x="130" dy="18.75">等外部 signal</tspan>
</text>
<polyline points="222,122 286,122" fill="none" stroke="#1971c2" stroke-width="2" marker-end="url(#ah760da0)" stroke-linecap="round" stroke-linejoin="round"/>
<polyline points="472,122 536,122" fill="none" stroke="#1971c2" stroke-width="2" marker-end="url(#ah760da0)" stroke-linecap="round" stroke-linejoin="round"/>
<polyline points="630,156 630,228" fill="none" stroke="#2f9e44" stroke-width="2" marker-end="url(#ah78c166)" stroke-linecap="round" stroke-linejoin="round"/>
<polyline points="538,262 474,262" fill="none" stroke="#2f9e44" stroke-width="2" marker-end="url(#ah78c166)" stroke-linecap="round" stroke-linejoin="round"/>
<polyline points="380,228 380,156" fill="none" stroke="#2f9e44" stroke-width="2" marker-end="url(#ah78c166)" stroke-linecap="round" stroke-linejoin="round"/>
<polyline points="660,156 660,368" fill="none" stroke="#e8590c" stroke-width="2" marker-end="url(#ah60a55d)" stroke-linecap="round" stroke-linejoin="round"/>
<polyline points="538,402 474,402" fill="none" stroke="#e8590c" stroke-width="2" marker-end="url(#ah60a55d)" stroke-linecap="round" stroke-linejoin="round"/>
<polyline points="288,140 200,228" fill="none" stroke="#e8590c" stroke-width="2" stroke-dasharray="8 6" marker-end="url(#ah60a55d)" stroke-linecap="round" stroke-linejoin="round"/>
<polyline points="150,228 280,156" fill="none" stroke="#2f9e44" stroke-width="2" stroke-dasharray="8 6" marker-end="url(#ah78c166)" stroke-linecap="round" stroke-linejoin="round"/>
<text x="56" y="320" font-size="13" fill="#2f9e44" text-anchor="start" dominant-baseline="hanging">
<tspan x="56" dy="0">↑ 收到 signal 放行後續推進</tspan>
</text>
<text x="290" y="446" font-size="13" fill="#e8590c" text-anchor="start" dominant-baseline="hanging">
<tspan x="290" dy="0">反向：notify←ship←pay←approve←reserve</tspan>
</text>
</svg>
