<?xml version="1.0" encoding="UTF-8"?>
<svg xmlns="http://www.w3.org/2000/svg" viewBox="16 0 898 484" width="898" height="484" font-family="system-ui,'Segoe UI','Microsoft JhengHei',sans-serif">
<defs>
<marker id="ah760da0" viewBox="0 0 10 10" refX="9" refY="5" markerWidth="7" markerHeight="7" orient="auto-start-reverse"><path d="M0,0 L10,5 L0,10 z" fill="#1971c2"/></marker>
<marker id="ah78c166" viewBox="0 0 10 10" refX="9" refY="5" markerWidth="7" markerHeight="7" orient="auto-start-reverse"><path d="M0,0 L10,5 L0,10 z" fill="#2f9e44"/></marker>
<marker id="ah60a55d" viewBox="0 0 10 10" refX="9" refY="5" markerWidth="7" markerHeight="7" orient="auto-start-reverse"><path d="M0,0 L10,5 L0,10 z" fill="#e8590c"/></marker>
</defs>
<rect x="16" y="0" width="898" height="484" fill="#ffffff"/>
<text x="40" y="24" font-size="22" fill="#1e1e1e" text-anchor="start" dominant-baseline="hanging">
<tspan x="40" dy="0">即時詐欺偵測 — 高階架構（即時路徑=藍 決策=綠 回饋/基建=黃）</tspan>
</text>
<rect x="40" y="100" width="150" height="64" rx="8" fill="#a5d8ff" stroke="#1971c2" stroke-width="2"/>
<text x="115" y="120" font-size="16" fill="#1e1e1e" text-anchor="middle" dominant-baseline="hanging">
<tspan x="115" dy="0">交易事件</tspan>
</text>
<rect x="250" y="100" width="180" height="64" rx="8" fill="#a5d8ff" stroke="#1971c2" stroke-width="2"/>
<text x="340" y="112" font-size="15" fill="#1e1e1e" text-anchor="middle" dominant-baseline="hanging">
<tspan x="340" dy="0">即時特徵</tspan>
<tspan x="340" dy="18.75">(滑動視窗速度,呼應㉒)</tspan>
</text>
<rect x="490" y="100" width="190" height="64" rx="8" fill="#a5d8ff" stroke="#1971c2" stroke-width="2"/>
<text x="585" y="112" font-size="15" fill="#1e1e1e" text-anchor="middle" dominant-baseline="hanging">
<tspan x="585" dy="0">規則引擎 + 模型評分</tspan>
<tspan x="585" dy="18.75">(每條命中加分→總分)</tspan>
</text>
<rect x="490" y="250" width="190" height="64" rx="8" fill="#b2f2bb" stroke="#2f9e44" stroke-width="2"/>
<text x="585" y="262" font-size="15" fill="#1e1e1e" text-anchor="middle" dominant-baseline="hanging">
<tspan x="585" dy="0">三分決策</tspan>
<tspan x="585" dy="18.75">(分數→allow/review/deny)</tspan>
</text>
<rect x="760" y="200" width="130" height="50" rx="8" fill="#d3f9d8" stroke="#2f9e44" stroke-width="2"/>
<text x="825" y="213" font-size="15" fill="#1e1e1e" text-anchor="middle" dominant-baseline="hanging">
<tspan x="825" dy="0">allow 放行</tspan>
</text>
<rect x="760" y="262" width="130" height="50" rx="8" fill="#ffec99" stroke="#e8590c" stroke-width="2"/>
<text x="825" y="275" font-size="15" fill="#1e1e1e" text-anchor="middle" dominant-baseline="hanging">
<tspan x="825" dy="0">review 人工審</tspan>
</text>
<rect x="760" y="324" width="130" height="50" rx="8" fill="#ffc9c9" stroke="#c92a2a" stroke-width="2"/>
<text x="825" y="337" font-size="15" fill="#1e1e1e" text-anchor="middle" dominant-baseline="hanging">
<tspan x="825" dy="0">deny 拒絕</tspan>
</text>
<rect x="250" y="250" width="180" height="64" rx="8" fill="#ffec99" stroke="#e8590c" stroke-width="2"/>
<text x="340" y="262" font-size="15" fill="#1e1e1e" text-anchor="middle" dominant-baseline="hanging">
<tspan x="340" dy="0">名單 / 線上特徵庫</tspan>
<tspan x="340" dy="18.75">(黑名單 + Redis 速度)</tspan>
</text>
<rect x="250" y="400" width="430" height="60" rx="8" fill="#ffec99" stroke="#e8590c" stroke-width="2"/>
<text x="465" y="418" font-size="15" fill="#1e1e1e" text-anchor="middle" dominant-baseline="hanging">
<tspan x="465" dy="0">回饋迴路：人工審/拒付結果 → 標記 → 離線再訓練模型 + 更新規則/名單</tspan>
</text>
<polyline points="192,132 248,132" fill="none" stroke="#1971c2" stroke-width="2" marker-end="url(#ah760da0)" stroke-linecap="round" stroke-linejoin="round"/>
<polyline points="432,132 488,132" fill="none" stroke="#1971c2" stroke-width="2" marker-end="url(#ah760da0)" stroke-linecap="round" stroke-linejoin="round"/>
<polyline points="585,166 585,248" fill="none" stroke="#2f9e44" stroke-width="2" marker-end="url(#ah78c166)" stroke-linecap="round" stroke-linejoin="round"/>
<polyline points="682,270 758,225" fill="none" stroke="#2f9e44" stroke-width="2" marker-end="url(#ah78c166)" stroke-linecap="round" stroke-linejoin="round"/>
<polyline points="682,286 758,286" fill="none" stroke="#2f9e44" stroke-width="2" marker-end="url(#ah78c166)" stroke-linecap="round" stroke-linejoin="round"/>
<polyline points="682,300 758,345" fill="none" stroke="#2f9e44" stroke-width="2" marker-end="url(#ah78c166)" stroke-linecap="round" stroke-linejoin="round"/>
<polyline points="340,250 340,168" fill="none" stroke="#e8590c" stroke-width="2" marker-end="url(#ah60a55d)" stroke-linecap="round" stroke-linejoin="round"/>
<polyline points="540,314 440,406 345,406" fill="none" stroke="#e8590c" stroke-width="2" stroke-dasharray="8 6" marker-end="url(#ah60a55d)" stroke-linecap="round" stroke-linejoin="round"/>
<polyline points="250,430 175,356 175,282" fill="none" stroke="#e8590c" stroke-width="2" stroke-dasharray="8 6" marker-end="url(#ah60a55d)" stroke-linecap="round" stroke-linejoin="round"/>
<text x="600" y="200" font-size="13" fill="#2f9e44" text-anchor="start" dominant-baseline="hanging">
<tspan x="600" dy="0">風險總分</tspan>
</text>
<text x="175" y="350" font-size="13" fill="#e8590c" text-anchor="start" dominant-baseline="hanging">
<tspan x="175" dy="0">更新名單/模型</tspan>
</text>
</svg>
