<?xml version="1.0" encoding="UTF-8"?>
<svg xmlns="http://www.w3.org/2000/svg" viewBox="16 6 898 582" width="898" height="582" font-family="system-ui,'Segoe UI','Microsoft JhengHei',sans-serif">
<defs>
<marker id="ah760da0" viewBox="0 0 10 10" refX="9" refY="5" markerWidth="7" markerHeight="7" orient="auto-start-reverse"><path d="M0,0 L10,5 L0,10 z" fill="#1971c2"/></marker>
<marker id="ah60a55d" viewBox="0 0 10 10" refX="9" refY="5" markerWidth="7" markerHeight="7" orient="auto-start-reverse"><path d="M0,0 L10,5 L0,10 z" fill="#e8590c"/></marker>
<marker id="ah78c166" viewBox="0 0 10 10" refX="9" refY="5" markerWidth="7" markerHeight="7" orient="auto-start-reverse"><path d="M0,0 L10,5 L0,10 z" fill="#2f9e44"/></marker>
</defs>
<rect x="16" y="6" width="898" height="582" fill="#ffffff"/>
<text x="40" y="30" font-size="22" fill="#1e1e1e" text-anchor="start" dominant-baseline="hanging">
<tspan x="40" dy="0">Bookings.com 短租平台 — 高階架構（下單/寫=藍 搜尋/讀=綠 基建=黃）</tspan>
</text>
<rect x="40" y="110" width="150" height="64" rx="8" fill="#a5d8ff" stroke="#1971c2" stroke-width="2"/>
<text x="115" y="130" font-size="16" fill="#1e1e1e" text-anchor="middle" dominant-baseline="hanging">
<tspan x="115" dy="0">使用者 (下單)</tspan>
</text>
<rect x="280" y="110" width="170" height="64" rx="8" fill="#a5d8ff" stroke="#1971c2" stroke-width="2"/>
<text x="365" y="122" font-size="16" fill="#1e1e1e" text-anchor="middle" dominant-baseline="hanging">
<tspan x="365" dy="0">預訂服務</tspan>
<tspan x="365" dy="20">(交易+鎖)</tspan>
</text>
<rect x="560" y="110" width="190" height="64" rx="8" fill="#ffec99" stroke="#e8590c" stroke-width="2"/>
<text x="655" y="122" font-size="16" fill="#1e1e1e" text-anchor="middle" dominant-baseline="hanging">
<tspan x="655" dy="0">庫存日曆 DB</tspan>
<tspan x="655" dy="20">(room×date)</tspan>
</text>
<rect x="280" y="240" width="170" height="64" rx="8" fill="#ffec99" stroke="#e8590c" stroke-width="2"/>
<text x="365" y="252" font-size="16" fill="#1e1e1e" text-anchor="middle" dominant-baseline="hanging">
<tspan x="365" dy="0">保留 hold</tspan>
<tspan x="365" dy="20">(TTL 暫留)</tspan>
</text>
<rect x="560" y="240" width="190" height="64" rx="8" fill="#ffec99" stroke="#e8590c" stroke-width="2"/>
<text x="655" y="252" font-size="16" fill="#1e1e1e" text-anchor="middle" dominant-baseline="hanging">
<tspan x="655" dy="0">付款服務</tspan>
<tspan x="655" dy="20">(交易外)</tspan>
</text>
<rect x="560" y="370" width="190" height="64" rx="8" fill="#a5d8ff" stroke="#1971c2" stroke-width="2"/>
<text x="655" y="382" font-size="16" fill="#1e1e1e" text-anchor="middle" dominant-baseline="hanging">
<tspan x="655" dy="0">確認/釋放</tspan>
<tspan x="655" dy="20">BOOKED↔OPEN</tspan>
</text>
<rect x="40" y="500" width="150" height="64" rx="8" fill="#b2f2bb" stroke="#2f9e44" stroke-width="2"/>
<text x="115" y="520" font-size="16" fill="#1e1e1e" text-anchor="middle" dominant-baseline="hanging">
<tspan x="115" dy="0">使用者 (搜尋)</tspan>
</text>
<rect x="280" y="500" width="170" height="64" rx="8" fill="#b2f2bb" stroke="#2f9e44" stroke-width="2"/>
<text x="365" y="512" font-size="16" fill="#1e1e1e" text-anchor="middle" dominant-baseline="hanging">
<tspan x="365" dy="0">搜尋服務</tspan>
<tspan x="365" dy="20">(可用性過濾)</tspan>
</text>
<rect x="560" y="500" width="190" height="64" rx="8" fill="#b2f2bb" stroke="#2f9e44" stroke-width="2"/>
<text x="655" y="512" font-size="16" fill="#1e1e1e" text-anchor="middle" dominant-baseline="hanging">
<tspan x="655" dy="0">讀副本 / 快取</tspan>
<tspan x="655" dy="20">(房況最終一致)</tspan>
</text>
<polyline points="192,142 278,142" fill="none" stroke="#1971c2" stroke-width="2" marker-end="url(#ah760da0)" stroke-linecap="round" stroke-linejoin="round"/>
<polyline points="452,142 558,142" fill="none" stroke="#1971c2" stroke-width="2" marker-end="url(#ah760da0)" stroke-linecap="round" stroke-linejoin="round"/>
<polyline points="365,176 365,238" fill="none" stroke="#1971c2" stroke-width="2" marker-end="url(#ah760da0)" stroke-linecap="round" stroke-linejoin="round"/>
<polyline points="452,272 558,272" fill="none" stroke="#e8590c" stroke-width="2" marker-end="url(#ah60a55d)" stroke-linecap="round" stroke-linejoin="round"/>
<polyline points="655,304 655,370" fill="none" stroke="#e8590c" stroke-width="2" marker-end="url(#ah60a55d)" stroke-linecap="round" stroke-linejoin="round"/>
<polyline points="655,370 655,174" fill="none" stroke="#1971c2" stroke-width="2" marker-end="url(#ah760da0)" stroke-linecap="round" stroke-linejoin="round"/>
<polyline points="192,532 278,532" fill="none" stroke="#2f9e44" stroke-width="2" marker-end="url(#ah78c166)" stroke-linecap="round" stroke-linejoin="round"/>
<polyline points="452,532 558,532" fill="none" stroke="#2f9e44" stroke-width="2" marker-end="url(#ah78c166)" stroke-linecap="round" stroke-linejoin="round"/>
<polyline points="745,500 805,340 750,174" fill="none" stroke="#2f9e44" stroke-width="2" marker-end="url(#ah78c166)" stroke-linecap="round" stroke-linejoin="round"/>
<text x="770" y="330" font-size="13" fill="#2f9e44" text-anchor="start" dominant-baseline="hanging">
<tspan x="770" dy="0">房況變更事件</tspan>
<tspan x="770" dy="16.25">→ 同步索引</tspan>
</text>
</svg>
