<?xml version="1.0" encoding="UTF-8"?>
<svg xmlns="http://www.w3.org/2000/svg" viewBox="16 0 908 338" width="908" height="338" font-family="system-ui,'Segoe UI','Microsoft JhengHei',sans-serif">
<defs>
<marker id="ah760da0" viewBox="0 0 10 10" refX="9" refY="5" markerWidth="7" markerHeight="7" orient="auto-start-reverse"><path d="M0,0 L10,5 L0,10 z" fill="#1971c2"/></marker>
<marker id="ah60a55d" viewBox="0 0 10 10" refX="9" refY="5" markerWidth="7" markerHeight="7" orient="auto-start-reverse"><path d="M0,0 L10,5 L0,10 z" fill="#e8590c"/></marker>
<marker id="ah78c166" viewBox="0 0 10 10" refX="9" refY="5" markerWidth="7" markerHeight="7" orient="auto-start-reverse"><path d="M0,0 L10,5 L0,10 z" fill="#2f9e44"/></marker>
</defs>
<rect x="16" y="0" width="908" height="338" fill="#ffffff"/>
<text x="40" y="24" font-size="22" fill="#1e1e1e" text-anchor="start" dominant-baseline="hanging">
<tspan x="40" dy="0">數位錢包 / 支付系統 — 高階架構（付款=藍 查詢/通知=綠 基建=黃）</tspan>
</text>
<rect x="40" y="110" width="150" height="64" rx="8" fill="#a5d8ff" stroke="#1971c2" stroke-width="2"/>
<text x="115" y="130" font-size="16" fill="#1e1e1e" text-anchor="middle" dominant-baseline="hanging">
<tspan x="115" dy="0">使用者 (付款)</tspan>
</text>
<rect x="250" y="110" width="170" height="64" rx="8" fill="#a5d8ff" stroke="#1971c2" stroke-width="2"/>
<text x="335" y="130" font-size="16" fill="#1e1e1e" text-anchor="middle" dominant-baseline="hanging">
<tspan x="335" dy="0">支付 API (冪等鍵)</tspan>
</text>
<rect x="250" y="24" width="170" height="60" rx="8" fill="#ffec99" stroke="#e8590c" stroke-width="2"/>
<text x="335" y="42" font-size="15" fill="#1e1e1e" text-anchor="middle" dominant-baseline="hanging">
<tspan x="335" dy="0">冪等鍵庫 (去重)</tspan>
</text>
<rect x="480" y="110" width="170" height="64" rx="8" fill="#a5d8ff" stroke="#1971c2" stroke-width="2"/>
<text x="565" y="122" font-size="15" fill="#1e1e1e" text-anchor="middle" dominant-baseline="hanging">
<tspan x="565" dy="0">交易服務</tspan>
<tspan x="565" dy="18.75">(原子過帳/防透支)</tspan>
</text>
<rect x="720" y="110" width="180" height="64" rx="8" fill="#ffec99" stroke="#e8590c" stroke-width="2"/>
<text x="810" y="122" font-size="15" fill="#1e1e1e" text-anchor="middle" dominant-baseline="hanging">
<tspan x="810" dy="0">雙分錄帳本 DB</tspan>
<tspan x="810" dy="18.75">(append-only)</tspan>
</text>
<rect x="720" y="250" width="180" height="64" rx="8" fill="#ffec99" stroke="#e8590c" stroke-width="2"/>
<text x="810" y="270" font-size="15" fill="#1e1e1e" text-anchor="middle" dominant-baseline="hanging">
<tspan x="810" dy="0">餘額快取 (物化)</tspan>
</text>
<rect x="480" y="250" width="180" height="64" rx="8" fill="#ffec99" stroke="#e8590c" stroke-width="2"/>
<text x="570" y="262" font-size="15" fill="#1e1e1e" text-anchor="middle" dominant-baseline="hanging">
<tspan x="570" dy="0">對帳 Job</tspan>
<tspan x="570" dy="18.75">(重算/驗借貸平衡)</tspan>
</text>
<rect x="250" y="250" width="170" height="64" rx="8" fill="#b2f2bb" stroke="#2f9e44" stroke-width="2"/>
<text x="335" y="270" font-size="15" fill="#1e1e1e" text-anchor="middle" dominant-baseline="hanging">
<tspan x="335" dy="0">通知 (付款成功)</tspan>
</text>
<rect x="40" y="250" width="150" height="64" rx="8" fill="#b2f2bb" stroke="#2f9e44" stroke-width="2"/>
<text x="115" y="270" font-size="15" fill="#1e1e1e" text-anchor="middle" dominant-baseline="hanging">
<tspan x="115" dy="0">查餘額 (讀)</tspan>
</text>
<polyline points="192,142 248,142" fill="none" stroke="#1971c2" stroke-width="2" marker-end="url(#ah760da0)" stroke-linecap="round" stroke-linejoin="round"/>
<polyline points="335,108 335,86" fill="none" stroke="#e8590c" stroke-width="2" marker-end="url(#ah60a55d)" stroke-linecap="round" stroke-linejoin="round"/>
<polyline points="422,142 478,142" fill="none" stroke="#1971c2" stroke-width="2" marker-end="url(#ah760da0)" stroke-linecap="round" stroke-linejoin="round"/>
<polyline points="652,142 718,142" fill="none" stroke="#1971c2" stroke-width="2" marker-end="url(#ah760da0)" stroke-linecap="round" stroke-linejoin="round"/>
<polyline points="810,176 810,248" fill="none" stroke="#e8590c" stroke-width="2" marker-end="url(#ah60a55d)" stroke-linecap="round" stroke-linejoin="round"/>
<polyline points="718,282 662,282" fill="none" stroke="#e8590c" stroke-width="2" marker-end="url(#ah60a55d)" stroke-linecap="round" stroke-linejoin="round"/>
<polyline points="565,176 565,248" fill="none" stroke="#e8590c" stroke-width="2" marker-end="url(#ah60a55d)" stroke-linecap="round" stroke-linejoin="round"/>
<polyline points="478,158 420,246" fill="none" stroke="#2f9e44" stroke-width="2" marker-end="url(#ah78c166)" stroke-linecap="round" stroke-linejoin="round"/>
<polyline points="248,282 192,282" fill="none" stroke="#2f9e44" stroke-width="2" marker-end="url(#ah78c166)" stroke-linecap="round" stroke-linejoin="round"/>
</svg>
